<?xml version="1.0" encoding="UTF-8" standalone="no"?>
<svg width="22px" height="24px" viewBox="0 0 22 24" version="1.1" xmlns="http://www.w3.org/2000/svg" xmlns:xlink="http://www.w3.org/1999/xlink" xmlns:sketch="http://www.bohemiancoding.com/sketch/ns">
    <!-- Generator: Sketch 3.3.1 (12002) - http://www.bohemiancoding.com/sketch -->
    <title>首页</title>
    <desc>Created with Sketch.</desc>
    <defs></defs>
    <g id="我的" stroke="none" stroke-width="1" fill="none" fill-rule="evenodd" sketch:type="MSPage">
        <g sketch:type="MSArtboardGroup" transform="translate(-52.000000, -621.000000)" id="tabbar" fill="#B5B5B5">
            <g sketch:type="MSLayerGroup" transform="translate(0.000000, 612.000000)">
                <path d="M72.733402,17.2882141 L63.6834792,9.24292331 C63.5928976,9.16057643 63.4734946,9.17704581 63.3664436,9.13175502 C63.2429233,9.07822954 63.1358724,9 63,9 C62.8641276,9 62.7570767,9.07822954 62.629439,9.13175502 C62.5265054,9.17704581 62.4071024,9.16057643 62.3165208,9.24292331 L53.266598,17.2882141 C53.0483788,17.4817293 52.9207411,17.7617087 52.9207411,18.0581575 L52.9207411,31.9706639 C52.9207411,32.5347401 53.3818837,33 53.9500772,33 L60.513124,33 C61.0813176,33 61.5424601,32.5347401 61.5424601,31.9706639 L61.5424601,24.9176531 L64.4575399,24.9176531 L64.4575399,31.9706639 C64.4575399,32.5347401 64.9186824,33 65.486876,33 L72.0499228,33 C72.6181163,33 73.0792589,32.5347401 73.0792589,31.9706639 L73.0792589,18.0581575 C73.0792589,17.7617087 72.9516212,17.4817293 72.733402,17.2882141 L72.733402,17.2882141 Z M71.0205867,30.9413278 L66.516212,30.9413278 L66.516212,23.888317 C66.516212,23.3201235 66.0550695,22.858981 65.486876,22.858981 L60.513124,22.858981 C59.9449305,22.858981 59.483788,23.3201235 59.483788,23.888317 L59.483788,30.9413278 L54.9794133,30.9413278 L54.9794133,18.5193001 L63,11.3880597 L71.0205867,18.5193001 L71.0205867,30.9413278 L71.0205867,30.9413278 Z" id="首页" sketch:type="MSShapeGroup"></path>
            </g>
        </g>
    </g>
</svg>