<?xml version="1.0" encoding="UTF-8" standalone="no"?>
<svg width="81px" height="81px" viewBox="0 0 81 81" version="1.1" xmlns="http://www.w3.org/2000/svg" xmlns:xlink="http://www.w3.org/1999/xlink" xmlns:sketch="http://www.bohemiancoding.com/sketch/ns">
    <!-- Generator: Sketch 3.3.1 (12002) - http://www.bohemiancoding.com/sketch -->
    <title>Imported Layers</title>
    <desc>Created with Sketch.</desc>
    <defs></defs>
    <g id="登录" stroke="none" stroke-width="1" fill="none" fill-rule="evenodd" sketch:type="MSPage">
        <g id="登录_默认" sketch:type="MSArtboardGroup" transform="translate(-147.000000, -147.000000)" fill="#1372D8">
            <g id="Imported-Layers" sketch:type="MSLayerGroup" transform="translate(147.441924, 147.000000)">
                <path d="M54.7695386,19.4634182 L62.8302918,19.4634182 L62.8302918,61.4992955 L54.7695386,61.4992955 L54.7695386,19.4634182 Z" id="Fill-1" sketch:type="MSShapeGroup"></path>
                <path d="M68.7022717,0.495651933 L11.4448595,0.495651933 C5.19900422,0.495651933 0.0881277683,5.60599428 0.0881277683,11.8523837 L0.0881277683,69.1097959 C0.0881277683,75.3561853 5.19900422,80.4665276 11.4448595,80.4665276 L68.7022717,80.4665276 C74.9486611,80.4665276 80.0590035,75.3561853 80.0590035,69.1097959 L80.0590035,11.8523837 C80.0590035,5.60599428 74.9486611,0.495651933 68.7022717,0.495651933 L68.7022717,0.495651933 Z M8.54412066,48.517274 L8.54412066,31.3328933 L18.9154237,31.3328933 C19.4708957,32.8032918 20.2191806,34.3484653 21.2163596,35.8968435 L13.1080708,35.8968435 L13.1080708,43.9533239 L27.7228595,43.9533239 C28.4866335,45.2196932 29.2210315,46.7723442 29.6221464,48.517274 L8.54412066,48.517274 L8.54412066,48.517274 Z M36.7701096,66.2181369 L19.5857289,66.2181369 L19.5857289,50.5960212 L24.1496791,50.5960212 L24.1496791,61.6541867 L32.2061594,61.6541867 L32.2061594,52.0407824 L32.1938749,52.0402483 C32.6564122,44.5296261 26.6866906,38.8963923 26.6263364,38.840311 C19.6818683,32.387756 19.5440685,24.2014875 19.5857289,22.6205287 L19.5857289,15.0548934 L36.7701096,15.0548934 L36.7701096,29.3369329 L32.2061594,29.3369329 L32.2061594,19.6183094 L24.1496791,19.6183094 L24.1496791,22.6301427 L24.1507473,22.6301427 C24.1502132,22.6344155 24.1496791,22.6525752 24.1496791,22.6589845 L24.1496791,22.6990426 L24.1480767,22.6990426 C24.1192349,23.4035306 24.0027994,30.1733455 29.7316385,35.4967969 C30.0371481,35.780408 37.1466555,42.5117672 36.7530181,51.9654733 L36.7701096,51.9654733 L36.7701096,66.2181369 L36.7701096,66.2181369 Z M47.8111837,48.517274 L38.8584706,48.517274 C38.6437593,46.8887797 38.2533266,45.3633682 37.7523336,43.9533239 L43.2477676,43.9533239 L43.2477676,35.8968435 L33.1718261,35.8968435 C32.1548851,34.6480997 31.3836336,33.9169063 31.2837554,33.8245057 C30.4206374,33.0222759 29.7172176,32.1799881 29.1329038,31.3328933 L47.8111837,31.3328933 L47.8111837,48.517274 L47.8111837,48.517274 Z M50.2061225,14.899468 L67.394242,14.899468 L67.394242,66.0627115 L50.2061225,66.0627115 L50.2061225,14.899468 Z" id="Fill-2" sketch:type="MSShapeGroup"></path>
            </g>
        </g>
    </g>
</svg>