<?xml version="1.0" encoding="UTF-8" standalone="no"?>
<svg width="23px" height="26px" viewBox="0 0 23 26" version="1.1" xmlns="http://www.w3.org/2000/svg" xmlns:xlink="http://www.w3.org/1999/xlink" xmlns:sketch="http://www.bohemiancoding.com/sketch/ns">
    <!-- Generator: Sketch 3.3.1 (12002) - http://www.bohemiancoding.com/sketch -->
    <title>我的</title>
    <desc>Created with Sketch.</desc>
    <defs></defs>
    <g id="消息" stroke="none" stroke-width="1" fill="none" fill-rule="evenodd" sketch:type="MSPage">
        <g id="消息-copy" sketch:type="MSArtboardGroup" transform="translate(-302.000000, -619.000000)" fill="#B5B5B5">
            <g id="tabbar" sketch:type="MSLayerGroup" transform="translate(0.000000, 612.000000)">
                <path d="M317.256064,19.3268465 C318.787607,18.1649866 319.799156,16.3450101 319.799156,14.2772243 C319.799156,10.7753946 316.955443,7.92761887 313.453613,7.92761887 C309.955846,7.92761887 307.10807,10.7753946 307.10807,14.2772243 C307.10807,16.3450101 308.115557,18.1649866 309.655225,19.3268465 C305.698401,20.8583892 302.875,24.6811523 302.875,29.1701568 C302.875,29.5601518 303.098435,29.9176472 303.45593,30.0842075 C303.65499,30.1776438 308.371491,32.3835528 313.453613,32.3835528 C318.352925,32.3835528 323.231924,30.1817063 323.435047,30.0923324 C323.796605,29.9257721 324.032227,29.5642142 324.032227,29.1701568 C324.032227,24.6811523 321.208826,20.8583892 317.256064,19.3268465 L317.256064,19.3268465 Z M309.139294,14.2772243 C309.139294,11.8966301 311.073019,9.95884262 313.453613,9.95884262 C315.830145,9.95884262 317.767933,11.8966301 317.767933,14.2772243 C317.767933,16.6537561 315.830145,18.5915435 313.453613,18.5915435 C311.073019,18.5915435 309.139294,16.6537561 309.139294,14.2772243 L309.139294,14.2772243 Z M313.453613,30.352329 C309.838035,30.352329 306.307768,29.0726581 304.930598,28.5079779 C305.267782,24.1042848 308.964609,20.6227673 313.453613,20.6227673 C317.942618,20.6227673 321.635383,24.1002224 321.976628,28.5039154 C320.558834,29.0685956 316.951381,30.352329 313.453613,30.352329 L313.453613,30.352329 Z" id="我的" sketch:type="MSShapeGroup"></path>
            </g>
        </g>
    </g>
</svg>