<?xml version="1.0" encoding="UTF-8" standalone="no"?>
<svg width="25px" height="26px" viewBox="0 0 25 26" version="1.1" xmlns="http://www.w3.org/2000/svg" xmlns:xlink="http://www.w3.org/1999/xlink" xmlns:sketch="http://www.bohemiancoding.com/sketch/ns">
    <!-- Generator: Sketch 3.3.1 (12002) - http://www.bohemiancoding.com/sketch -->
    <title>消息</title>
    <desc>Created with Sketch.</desc>
    <defs></defs>
    <g id="我的" stroke="none" stroke-width="1" fill="none" fill-rule="evenodd" sketch:type="MSPage">
        <g sketch:type="MSArtboardGroup" transform="translate(-175.000000, -619.000000)" id="tabbar" fill="#B5B5B5">
            <g sketch:type="MSLayerGroup" transform="translate(0.000000, 612.000000)">
                <path d="M187.517243,7.92761887 C183.393799,7.92761887 179.349577,10.2034883 177.217651,13.7288755 C175.384931,16.7541727 175.271403,20.2756695 176.899702,23.3883233 C177.267165,24.0850541 177.736486,24.6530489 178.194843,25.1984088 C178.581051,25.6641928 178.948161,26.1034515 179.213414,26.5840897 C180.372038,28.6933803 178.84595,30.2760557 178.137902,30.8592583 C177.853905,31.0979858 177.725168,31.4728765 177.812171,31.8360961 C177.899174,32.1961326 178.183172,32.4762396 178.546745,32.5558155 C178.7929,32.6085124 179.06558,32.638928 179.357358,32.638928 C180.156299,32.638928 180.966558,32.4345065 181.621556,32.2718181 C183.442959,31.8173515 184.541106,30.9692498 185.707157,29.6779989 C189.024233,29.6550103 192.239097,29.3749033 195.154756,27.0576544 C197.714623,25.0166221 199.244248,21.9304937 199.244248,18.802632 C199.244248,12.8047346 193.984814,7.92761887 187.517243,7.92761887 Z M193.946972,25.5428838 C191.394532,27.5725986 188.384443,27.7391774 185.267898,27.7391774 C184.987791,27.7391774 184.719002,27.8601327 184.533325,28.0762253 C183.461703,29.3179624 182.640127,30.0185836 181.151882,30.3934742 C181.095294,30.4047917 181.038353,30.4199995 180.981766,30.4352074 C181.776817,28.9317542 181.780708,27.2316603 180.909617,25.6528753 C180.557362,25.0053047 180.110676,24.4712623 179.682734,23.9563181 C179.273891,23.4678992 178.887683,23.0021152 178.618894,22.487171 C177.2898,19.9538294 177.38423,17.2012122 178.876366,14.7322386 C180.663463,11.7748462 184.056223,9.86644037 187.517243,9.86644037 C192.913193,9.86644037 197.305426,13.8763561 197.305426,18.802632 C197.305426,21.3437543 196.048482,23.8654248 193.946972,25.5428838 Z M187.517596,17.4859169 C186.74518,17.4859169 186.119183,18.1119136 186.119183,18.8839763 C186.119183,19.6560389 186.74518,20.2820356 187.517596,20.2820356 C188.289659,20.2820356 188.915656,19.6560389 188.915656,18.8839763 C188.915656,18.1119136 188.289659,17.4859169 187.517596,17.4859169 Z M191.395239,17.4859169 C190.622823,17.4859169 189.996826,18.1119136 189.996826,18.8839763 C189.996826,19.6560389 190.622823,20.2820356 191.395239,20.2820356 C192.167302,20.2820356 192.793652,19.6560389 192.793652,18.8839763 C192.793652,18.1119136 192.167302,17.4859169 191.395239,17.4859169 Z M183.639953,17.4859169 C182.867537,17.4859169 182.24154,18.1119136 182.24154,18.8839763 C182.24154,19.6560389 182.867537,20.2820356 183.639953,20.2820356 C184.412016,20.2820356 185.038013,19.6560389 185.038013,18.8839763 C185.038013,18.1119136 184.412016,17.4859169 183.639953,17.4859169 Z" id="消息" sketch:type="MSShapeGroup"></path>
            </g>
        </g>
    </g>
</svg>